<svg display="none" xmlns="http://www.w3.org/2000/svg">
    <symbol id="telegram" viewBox="0 0 40 40">
        <g fill="none">
            <circle cx="20" cy="20" r="19.25" stroke="white" stroke-width="1.5"/>
            <path d="M24.5676 29.6014C23.484 29.9626 15.5377 24.0934 15.5377 23.7319C15.5377 23.0096 19.7516 19.2169 21.8586 17.4109C22.3101 16.9594 23.4602 15.8684 23.2131 15.6049C22.7054 15.0635 22.0091 15.7554 21.4071 16.0564L15.5377 20.1199C14.4842 20.8724 12.321 22.2874 11.4742 22.3774C10.5762 22.4728 9.21672 21.9259 7.41073 21.4744C5.96594 21.1132 5.90574 20.4209 6.05624 20.1199C12.5277 17.2604 25.7415 11.4512 26.8251 11.09C27.9087 10.7288 28.1796 11.5415 28.1796 11.993L25.9221 27.3439C25.9221 27.9459 25.6512 29.2402 24.5676 29.6014Z" stroke="white" stroke-width="1.5"/>
        </g>
    </symbol>

    <symbol id="whatsapp" viewBox="0 0 40 40">
        <g fill="none">
            <circle r="19.25" transform="matrix(-1 0 0 1 20 20)" stroke="white" stroke-width="1.5"/>
            <path d="M15.6203 25.6656L15.5043 25.887C16.2615 26.2836 17.1277 26.3295 18.0008 26.1484C19.7377 25.7882 21.5888 24.5351 23.0985 22.9906C24.608 21.4463 25.8219 19.5688 26.1584 17.8425C26.3274 16.976 26.2777 16.1163 25.8805 15.3816C25.4813 14.6433 24.7554 14.086 23.7226 13.7685C23.7033 13.7624 23.6837 13.7576 23.6638 13.754L23.3722 13.7013L23.3713 13.7984C23.3595 13.804 23.348 13.8101 23.3367 13.8166L23.3706 13.8753L23.3367 13.8166C23.2686 13.8559 23.2111 13.9113 23.1694 13.9779L23.1673 13.9813L23.1673 13.9813L21.1536 17.3144C21.1408 17.3298 21.129 17.346 21.1182 17.3629L21.0628 17.4204L21.0627 17.4294L21.0483 17.445L21.0476 17.4937L21.0405 17.5092L21.0404 17.5152L21.0333 17.5307L21.0325 17.5834V17.59L15.6203 25.6656ZM15.6203 25.6656L15.5043 25.887C14.7444 25.489 14.1484 24.7588 13.7762 23.7073L13.7761 23.7073M15.6203 25.6656L13.7761 23.7073M13.7761 23.7073L13.7746 23.7029M13.7761 23.7073L13.7746 23.7029M13.7746 23.7029C13.7409 23.6017 13.7418 23.4922 13.7772 23.3915C13.8125 23.2909 13.8803 23.2049 13.9699 23.147L13.9699 23.147M13.7746 23.7029L13.9699 23.147M13.9699 23.147L13.9728 23.1451M13.9699 23.147L13.9728 23.1451M13.9728 23.1451L17.2693 21.079M13.9728 23.1451L17.2693 21.079M17.2693 21.079C17.2706 21.0781 17.2718 21.0772 17.2731 21.0764L17.3405 21.0094L17.3917 21.0086C17.3948 21.007 17.398 21.0054 17.4012 21.0039L17.4509 20.9798L17.5062 20.979H17.5121C17.5296 20.9758 17.5472 20.9736 17.565 20.9724L17.5821 20.9712L17.5993 20.9724C17.6263 20.9742 17.653 20.9784 17.6793 20.9847C17.7585 21.0005 17.8325 21.036 17.8944 21.088L17.9303 21.1182L17.9462 21.1472C17.9541 21.1562 17.9616 21.1656 17.9687 21.1752L18.6779 21.8785C19.9679 21.2251 20.9631 20.1365 21.862 18.6561L21.2351 18.029L21.1834 18.0282L21.1213 17.9147L21.1152 17.9084L21.0991 17.8791C21.0962 17.8736 21.0933 17.8681 21.0905 17.8626L21.0427 17.813L21.0418 17.7837L17.2693 21.079ZM21.0324 17.6338C21.0323 17.6266 21.0323 17.6195 21.0324 17.6123V17.6553C21.0323 17.6481 21.0323 17.6409 21.0324 17.6338ZM22.8072 18.2376L22.8074 18.2378C22.8833 18.3132 22.9319 18.4117 22.9455 18.5179L22.6975 18.5497L22.9455 18.5179C22.959 18.6235 22.9371 18.7306 22.8832 18.8225C21.8156 20.6715 20.5531 22.1153 18.7722 22.9004L18.7722 22.9005L18.7674 22.9025C18.6792 22.9392 18.582 22.9488 18.4884 22.93C18.3949 22.9113 18.3091 22.8652 18.2418 22.7976C18.2417 22.7975 18.2416 22.7974 18.2415 22.7973L17.51 22.0656L14.8225 23.7448C15.1214 24.4094 15.5101 24.8122 15.9455 25.0401L15.9455 25.0401C16.4564 25.3077 17.0839 25.3613 17.8055 25.2116C19.2571 24.9105 20.9871 23.7788 22.4164 22.3165C23.8453 20.8547 24.9313 19.1069 25.2133 17.6603L25.4587 17.7082L25.2133 17.6603C25.3534 16.9415 25.2918 16.3281 25.0296 15.8431L25.0296 15.8431C24.8072 15.4319 24.422 15.0715 23.7837 14.8122L22.1246 17.5608L22.8072 18.2376Z" stroke="white" stroke-width="1"/>
            <path d="M30.6345 30.3541L30.6345 30.3542C30.6618 30.4454 30.6634 30.5423 30.6391 30.6344C30.6149 30.7264 30.5657 30.81 30.497 30.8759C30.4283 30.9418 30.3428 30.9875 30.2499 31.0079C30.1569 31.0283 30.0601 31.0228 29.9701 30.9917L29.97 30.9917L25.6638 29.5056C23.875 30.6114 21.7597 31.25 19.5 31.25C13.0128 31.25 7.75 25.9872 7.75 19.5C7.75 13.0128 13.0128 7.75 19.5 7.75C25.9846 7.75 31.25 13.0127 31.25 19.5C31.25 21.8605 30.5505 24.063 29.3162 25.9545L30.6345 30.3541ZM25.316 28.5013L25.3161 28.5013C25.3821 28.4584 25.457 28.4313 25.5349 28.4218L25.5652 28.6699L25.535 28.4218C25.6129 28.4123 25.6921 28.4206 25.7665 28.4463C25.7665 28.4463 25.7665 28.4463 25.7665 28.4463L29.3534 29.6842L28.2552 26.019C28.2331 25.9453 28.2277 25.8675 28.2395 25.7914C28.2513 25.7153 28.2799 25.6427 28.3232 25.5791L28.3233 25.5791C29.5331 23.804 30.2151 21.7329 30.2151 19.5C30.2151 13.578 25.4194 8.78488 19.5 8.78488C13.5779 8.78488 8.78488 13.5779 8.78488 19.5C8.78488 25.4221 13.5779 30.2151 19.5 30.2151C21.6473 30.2151 23.6458 29.585 25.316 28.5013Z" fill="white" stroke="white" stroke-width="0.5"/>
        </g>
    </symbol>

    <symbol id="instagram" viewBox="0 0 40 40">
        <g fill="none">
            <circle cx="20" cy="20" r="19.25" stroke="white" stroke-width="1.5"/>
            <rect x="10.75" y="9.75" width="19.5" height="19.5" rx="4.25" stroke="white" stroke-width="1.5"/>
            <circle cx="20.5" cy="19.5" r="4.5" stroke="white" stroke-width="1.5"/>
            <circle cx="27.0625" cy="14.25" r="0.75" stroke="white" stroke-width="1.125"/>
        </g>
    </symbol>

    <symbol id="instagram-option" viewBox="0 0 40 40">
        <g fill="none">
            <circle cx="20" cy="20" r="19.5" stroke="white"/>
            <rect x="11.5" y="11.5" width="17" height="17" rx="4.5" stroke="white"/>
            <circle cx="20" cy="20" r="4" stroke="white"/>
            <circle cx="25.625" cy="15.5" r="0.625" fill="#929292" stroke="white"/>
        </g>
    </symbol>

    <symbol id="vk" viewBox="0 0 40 40">
        <g fill="none">
            <circle cx="20" cy="20" r="19.25" stroke="white" stroke-width="1.5"/>
            <path d="M14.009 25.5002C11.609 24.3002 7.67601 17.0005 6.00934 13.5005C6.00934 13.5005 5.70934 13.0005 8.50934 13.0005C9.78338 13.0005 10.5274 13.1993 10.9825 13.5003C11.0088 13.5002 11.6816 14.8452 12.0026 15.4869L12.0093 15.5005C12.3257 16.1329 15.0093 21.0005 16.0093 20.0005C16.8093 19.2005 16.676 15.6671 16.5093 14.0005L15.509 13.5003C15.509 13.0003 17.1146 13 18.009 13C19.009 13 21.0093 13.0005 22.0093 13.0005C23.0093 13.0005 21.5093 19.0005 22.0093 20.0005C22.5093 21.0005 24.0094 19.0003 24.5093 18.5005C25.1419 17.8682 26.8427 14.6672 27.5093 13.0005H32.5093C33.7093 13.0005 33.3427 14.0005 33.0093 14.5005C31.8427 16.1672 29.4093 19.7005 29.0093 20.5005C28.6093 21.3005 28.8427 21.8339 29.0093 22.0005L33.0093 26.0005C33.8093 26.8005 33.509 28.0002 33.0093 28.0005H30.5093H27.0093C26.6093 28.0005 25.5093 26.6672 25.0093 26.0005C24.676 25.5005 23.8093 24.6005 23.0093 25.0005C22.2093 25.4005 22.0093 27.5005 22.0093 27.5005C22.176 27.6672 21.9093 28.0005 19.5093 28.0005C17.1093 28.0005 14.8424 26.3336 14.009 25.5002Z" stroke="white" stroke-width="1.5"/>
        </g>
    </symbol>

    <symbol id="vk-option" viewBox="0 0 40 40">
        <g fill="none">
            <circle cx="20" cy="20" r="19.5" stroke="white"/>
            <path d="M25.2187 26.029C25.5831 26.0393 25.9474 26.0444 26.3118 26.0444C26.75 26.0448 27.1878 26.0367 27.6251 26.0201C28.0218 26.0081 28.4135 25.9296 28.7835 25.7882C28.9221 25.7367 29.0485 25.6578 29.1549 25.5563C29.2614 25.4548 29.3456 25.3329 29.4024 25.198C29.458 25.05 29.4823 24.8923 29.4738 24.7347C29.4652 24.5771 29.424 24.4229 29.3528 24.2815C29.2288 24.0168 29.0813 23.7635 28.9121 23.5244C28.4057 22.8316 27.8192 22.1994 27.1645 21.6405C26.9031 21.4177 26.6582 21.1766 26.4319 20.9191C26.3676 20.8444 26.3245 20.7542 26.3072 20.6578C26.343 20.5596 26.3968 20.4689 26.4661 20.3901C26.7162 20.0511 26.972 19.7158 27.2278 19.3819L27.2561 19.3449C27.4534 19.0871 27.65 18.8303 27.8442 18.5699L27.9725 18.3983C28.4643 17.74 28.9733 17.0586 29.2902 16.2462C29.4206 15.9571 29.4739 15.6399 29.4453 15.3247C29.3884 14.9091 29.0363 14.4681 28.2165 14.4681H28.2029L26.9657 14.4808C26.3564 14.4898 25.7472 14.4974 25.138 14.4974C25.1196 14.4974 25.1022 14.4976 25.0848 14.4977C25.0499 14.498 25.015 14.4983 24.9732 14.4974C24.4466 14.4974 24.0745 14.7396 23.8348 15.2393L23.6113 15.7045C23.309 16.3352 23.0064 16.9666 22.6699 17.5808C22.36 18.187 21.948 18.737 21.4515 19.2072C21.3659 18.8073 21.3398 18.3972 21.3739 17.9899L21.3823 17.6661C21.3859 17.4113 21.4006 17.1565 21.4153 16.9007L21.4178 16.858C21.4424 16.4386 21.4663 16.0206 21.4514 15.6025C21.4294 14.997 21.2731 14.3469 20.2814 14.1201C19.8939 14.0281 19.4955 13.9887 19.0971 14.0028C18.358 14.0104 17.6177 14.0385 16.8824 14.0946C16.6544 14.1053 16.4313 14.1645 16.2286 14.2681C16.0259 14.3717 15.8483 14.5173 15.7079 14.695C15.6228 14.7965 15.5604 14.9146 15.5247 15.0416C15.4891 15.1685 15.4811 15.3015 15.5012 15.4317C15.5761 15.7351 15.8823 15.8804 16.1233 15.9467C16.449 16.0397 16.4884 16.1697 16.5064 16.2309C16.5615 16.4398 16.594 16.6539 16.6034 16.8695C16.6235 17.1639 16.6278 17.4592 16.6163 17.7541C16.6105 17.9083 16.6105 18.0638 16.6111 18.2181C16.6309 18.5695 16.5996 18.9219 16.5181 19.2645C16.5167 19.2683 16.5156 19.2721 16.5148 19.276C16.4154 19.1978 16.3261 19.1079 16.2487 19.0084C16.071 18.7878 15.8998 18.5598 15.7402 18.3239C15.1215 17.401 14.5971 16.4198 14.1748 15.3948C13.9125 14.7651 13.3924 14.4222 12.7296 14.463C12.4556 14.4694 12.183 14.4681 11.911 14.4668L10.6725 14.463C10.6395 14.4627 10.6065 14.4623 10.5734 14.4618C10.44 14.46 10.3059 14.4581 10.1718 14.4694C9.53413 14.514 9.24728 14.788 9.11936 15.0098C8.99983 15.2163 8.90995 15.5643 9.15682 16.0525L9.66204 17.0607C9.67465 17.086 9.68725 17.1112 9.69985 17.1365C10.135 18.0086 10.5704 18.8814 11.0388 19.7362C11.6147 20.828 12.3072 21.8561 13.1043 22.803C13.5538 23.3198 14.0292 23.8141 14.5289 24.2841C15.0874 24.7958 15.7418 25.195 16.4554 25.4593C16.9932 25.6768 17.5551 25.8312 18.1294 25.9195C18.6344 25.9788 19.1432 26.001 19.6515 25.9858H20.0495C20.9121 25.9858 21.3753 25.5396 21.4283 24.6193C21.4509 24.2357 21.4722 23.8749 21.6389 23.5792C21.6744 23.5142 21.706 23.4862 21.7371 23.513C21.9364 23.6379 22.1188 23.7873 22.2798 23.9578C22.4581 24.1388 22.6293 24.3249 22.8011 24.5123L22.8187 24.5313C23.0357 24.7671 23.2524 25.0026 23.4814 25.226C24.0106 25.7435 24.5945 26.0137 25.2187 26.029Z" stroke="white"/>
        </g>
    </symbol>

    <symbol id="facebook" viewBox="0 0 40 40">
        <g fill="none">
            <circle cx="20" cy="20" r="19.5" stroke="white"/>
            <path d="M17.2382 20.6182V20.1182H16.7382H14.5V16.8367H16.8571H17.3571V16.3367V13.6801V13.6371L17.3497 13.5946C17.3112 13.3726 17.1225 11.93 18.4404 10.7153C19.657 9.59412 21.2161 9.5 21.6703 9.5C21.7281 9.5 21.7645 9.50143 21.7762 9.502L21.7884 9.5026H21.8007H24.5V12.5329H24.4975H24.4942H24.4909H24.4876H24.4842H24.4808H24.4774H24.4739H24.4704H24.4669H24.4634H24.4598H24.4562H24.4526H24.4489H24.4453H24.4416H24.4378H24.4341H24.4303H24.4265H24.4226H24.4187H24.4148H24.4109H24.407H24.403H24.399H24.395H24.3909H24.3869H24.3828H24.3786H24.3745H24.3703H24.3661H24.3619H24.3576H24.3534H24.3491H24.3448H24.3404H24.3361H24.3317H24.3273H24.3228H24.3184H24.3139H24.3094H24.3049H24.3003H24.2958H24.2912H24.2866H24.282H24.2773H24.2727H24.268H24.2633H24.2585H24.2538H24.249H24.2442H24.2394H24.2346H24.2297H24.2249H24.22H24.2151H24.2102H24.2052H24.2003H24.1953H24.1903H24.1853H24.1803H24.1752H24.1702H24.1651H24.16H24.1549H24.1497H24.1446H24.1394H24.1343H24.1291H24.1239H24.1186H24.1134H24.1081H24.1029H24.0976H24.0923H24.087H24.0816H24.0763H24.071H24.0656H24.0602H24.0548H24.0494H24.044H24.0385H24.0331H24.0276H24.0222H24.0167H24.0112H24.0057H24.0002H23.9946H23.9891H23.9835H23.978H23.9724H23.9668H23.9612H23.9556H23.95H23.9444H23.9387H23.9331H23.9274H23.9218H23.9161H23.9104H23.9047H23.899H23.8933H23.8876H23.8819H23.8762H23.8704H23.8647H23.8589H23.8532H23.8474H23.8416H23.8358H23.8301H23.8243H23.8185H23.8127H23.8069H23.801H23.7952H23.7894H23.7835H23.7777H23.7719H23.766H23.7602H23.7543H23.7485H23.7426H23.7367H23.7309H23.725H23.7191H23.7132H23.7073H23.7014H23.6956H23.6897H23.6838H23.6779H23.672H23.6661H23.6602H23.6543H23.6484H23.6425H23.6366H23.6307H23.6247H23.6188H23.6129H23.607H23.6011H23.5952H23.5893H23.5834H23.5775H23.5716H23.5657H23.5598H23.5539H23.548H23.5421H23.5362H23.5303H23.5244H23.5185H23.5127H23.5068H23.5009H23.495H23.4892H23.4833H23.4774H23.4716H23.4657H23.4599H23.454H23.4482H23.4423H23.4365H23.4307H23.4248H23.419H23.4132H23.4074H23.4016H23.3958H23.39H23.3843H23.3785H23.3727H23.367H23.3612H23.3555H23.3497H23.344H23.3383H23.3326H23.3269H23.3212H23.3155H23.3098H23.3041H23.2985H23.2928H23.2872H23.2815H23.2759H23.2703H23.2647H23.2591H23.2535H23.2479H23.2424H23.2368H23.2313H23.2258H23.2202H23.2147H23.2092H23.2038H23.1983H23.1928H23.1874H23.182H23.1765H23.1711H23.1657H23.1604H23.155H23.1496H23.1443H23.139H23.1337H23.1284H23.1231H23.1178H23.1126H23.1073H23.1021H23.0969H23.0917H23.0865H23.0814H23.0762H23.0711H23.066H23.0609H23.0558H23.0508H23.0457H23.0407H23.0357H23.0307H23.0257H23.0208H23.0158H23.0109H23.006H23.0011H22.9963H22.9914H22.9866H22.9818H22.977H22.9723H22.9675H22.9628H22.9581H22.9534H22.9487H22.9441H22.9395H22.9349H22.9303H22.9257H22.9212H22.9167H22.9122H22.9077H22.9032H22.8988H22.8944H22.89H22.8857H22.8813H22.877H22.8727H22.8685H22.8642H22.86H22.8558H22.8516H22.8475H22.8434H22.8393H22.8352H22.8312H22.8271H22.8231H22.8192H22.8152H22.8113H22.8074H22.8036H22.7997H22.7959H22.7921H22.7884H22.7846H22.7809H22.7772H22.7736H22.77H22.7664H22.7628H22.7593H22.7558H22.7523H22.7488H22.7454H22.742H22.7387H22.7353H22.732H22.7288H22.7255H22.7223H22.7191H22.716H22.7129H22.7098H22.7067H22.7037H22.7007H22.6977H22.6948H22.6919H22.689H22.6862H22.6834H22.6806H22.6779H22.6752H22.6725H22.6698H22.6672H22.6647H22.6621H22.6596H22.6572H22.6547H22.6523H22.65H22.6476H22.6453H22.6431H22.6408H22.6387H22.6365H22.6344H22.6323H22.6302H22.6282H22.6263H22.6243H22.6224H22.6206H22.6187H22.617H22.6152H22.6135H22.6118H22.6102H22.6086H22.607H22.6055H22.604H22.6026H22.6012H22.5998H22.5985H22.5972H22.596H22.5948H22.5936H22.5925H22.5914H22.5903H22.5893H22.5884H22.5874H22.5866H22.5857H22.5849H22.5842H22.5835H22.5828H22.5822C22.1474 12.5329 21.7292 12.6365 21.4197 12.9284C21.1049 13.2254 20.988 13.636 20.988 14.065V16.3368V16.8368H21.488H24.4819L24.0992 20.1646H21.4879H20.9879V20.6646V30.3142H17.2382V20.6182ZM24.6488 12.681L24.6488 12.5329C24.6488 12.5329 24.6488 12.5329 24.6488 12.5329V12.681V13.0329L24.6488 12.681Z" stroke="white"/>
        </g>
    </symbol>

    <symbol id="twitter" viewBox="0 0 40 40" >
        <g fill="none">
            <circle cx="20" cy="20" r="19.5" stroke="white"/>
            <path d="M29.2046 13.9152L28.0658 15.2053L29.7186 14.7264C29.8728 14.6817 30.0255 14.6325 30.1767 14.5787C29.7554 15.1173 29.2687 15.5957 28.7235 16.0072L28.5171 16.163L28.525 16.4215C28.5284 16.5352 28.5301 16.6493 28.5301 16.7623C28.5301 19.4631 27.486 22.2053 25.6641 24.2759L25.6641 24.2759C24.2084 25.9302 21.6015 27.9033 17.4095 27.9033C15.5286 27.9033 13.6916 27.428 12.0528 26.5226C12.1252 26.5245 12.1976 26.5254 12.2698 26.5254C13.8204 26.5254 15.3011 26.1004 16.5957 25.2881L17.6231 24.6435L16.4398 24.3768C15.2392 24.1063 14.231 23.2629 13.7603 22.1033C13.7833 22.106 13.8063 22.1085 13.8294 22.1108L14.1356 21.1841C13.0786 20.5526 12.3662 19.4252 12.2852 18.1569C12.4101 18.2148 12.5379 18.2664 12.6678 18.3114L14.3988 18.912L13.2128 17.5154C12.6365 16.8367 12.3099 15.9679 12.3099 15.0512C12.3099 14.4645 12.4451 13.8871 12.702 13.3664C14.6558 15.6571 17.4356 17.0921 20.4207 17.3547L21.039 17.409L20.9605 16.7933C20.9398 16.6312 20.9293 16.4666 20.9293 16.3009C20.9293 14.2047 22.6324 12.5 24.7228 12.5C25.7131 12.5 26.6726 12.8934 27.3783 13.5842L27.5716 13.7734L27.8358 13.7151C28.5196 13.5642 29.1778 13.3265 29.7996 13.0063C29.6457 13.3369 29.4451 13.6428 29.2046 13.9152ZM13.4585 22.0569L13.4585 22.0569C13.4585 22.0569 13.4585 22.0569 13.4585 22.0569Z" stroke="white"/>
        </g>
    </symbol>

    <symbol id="basket" viewBox="0 0 21 20">
        <g>
            <path d="M18.5894 19.5995H2.2463C2.04729 19.5995 1.85527 19.5261 1.70698 19.3934C1.5587 19.2607 1.46456 19.0779 1.44258 18.8801L0.00494607 5.94143C-0.00761334 5.82839 0.0038114 5.71398 0.0384741 5.60566C0.0731368 5.49734 0.130258 5.39755 0.206107 5.31281C0.281957 5.22806 0.374828 5.16027 0.478657 5.11386C0.582487 5.06745 0.694939 5.04346 0.808669 5.04346H20.0271C20.1408 5.04346 20.2532 5.06745 20.3571 5.11386C20.4609 5.16027 20.5538 5.22806 20.6296 5.31281C20.7055 5.39755 20.7626 5.49734 20.7973 5.60566C20.8319 5.71398 20.8433 5.82839 20.8308 5.94143L19.3932 18.8801C19.3712 19.0779 19.277 19.2607 19.1287 19.3934C18.9805 19.5261 18.7884 19.5995 18.5894 19.5995Z"/>
            <path d="M6.375 5.04334C6.375 3.97098 6.80099 2.94254 7.55927 2.18427C8.31754 1.42599 9.34598 1 10.4183 1C11.4907 1 12.5191 1.42599 13.2774 2.18427C14.0357 2.94254 14.4617 3.97098 14.4617 5.04334" fill="none" stroke-width="1.5" stroke-linecap="round" stroke-linejoin="round"/>
        </g>
    </symbol>

    <symbol id="star" viewBox="0 0 40 40">
        <path d="M19.998 0C21.0802 4.89283 23.5326 9.37657 27.0687 12.9272C30.6205 16.464 35.1057 18.9165 40 19.998C35.1019 21.0694 30.614 23.5233 27.0687 27.0687C23.5233 30.614 21.0694 35.1019 19.998 40C18.9165 35.1057 16.464 30.6205 12.9272 27.0687C9.37657 23.5326 4.89283 21.0802 0 19.998C4.89362 18.9179 9.37793 16.4651 12.9272 12.9272C16.4651 9.37793 18.9179 4.89362 19.998 0V0Z" fill="white"/>
    </symbol>

    <symbol id="intro-line" viewBox="0 0 507 563">
        <path d="M457.589 561.945C461.946 544.757 469.123 528.227 479.999 513.955C484.329 508.292 489.204 503.044 494.558 498.282C497.187 495.882 500 493.314 503.211 491.745C504.503 491.109 505.353 490.862 505.302 492.529C505.08 494.107 504.575 495.635 503.809 497.044C497.915 510.238 487.123 518.717 473.779 524.14C465.525 527.374 457.04 530.016 448.39 532.045C440.422 534.013 431.515 536.088 423.267 534.686C408.006 532.084 411.673 512.632 413.829 502.095C417.927 482.131 425.373 462.766 432.483 443.685C440.769 421.415 449.486 399.273 456.842 376.682C462.744 358.576 468.876 339.333 468.822 320.155C468.814 307.899 464.912 294.919 451.274 291.627C443.956 289.857 436.123 290.837 428.861 292.386C418.842 294.518 409.163 298.056 399.73 301.939C377.604 311.053 356.502 322.407 335.364 333.483C317.875 342.66 300.121 352.985 281.099 358.918C276.525 360.348 269.984 362.45 265.312 360.222C261.215 358.294 262.34 353.645 263.653 350.267C266.261 343.668 270.602 337.642 274.738 331.908C280.88 323.424 287.419 315.249 293.958 307.074C309.024 288.219 324.321 269.427 337.524 249.261C348.296 232.808 359.85 213.696 360.855 193.7C361.22 186.392 359.752 178.768 355.402 172.668C351.562 167.273 345.752 163.668 339.502 161.382C331.43 158.433 322.714 157.395 314.161 156.924C303.273 156.459 292.365 156.63 281.498 157.436C255.022 159.082 228.676 162.285 202.199 163.981C174.204 165.751 145.752 166.26 117.979 161.709C91.7448 157.378 66.0225 147.999 46.0848 130.424C20.6652 107.96 8.37202 75.6302 4.14872 43.1327C2.43406 29.1924 1.84017 15.1432 2.37243 1.11303C2.396 0.329383 1.15014 0.386405 1.10936 1.15616C0.156741 31.9006 3.29703 63.733 16.4345 92.07C28.6014 118.694 50.5521 139.938 77.9848 151.64C102.93 162.291 130.544 165.707 157.568 166.313C185.99 166.956 214.371 164.434 242.643 161.847C266.573 159.644 290.883 156.708 314.957 158.143C329.95 159.036 348.943 162.005 356.344 176.577C364.995 193.52 355.77 214.568 347.599 229.933C336.063 251.626 320.75 271.344 305.466 290.638C292.585 306.893 278.523 322.719 267.514 340.287C263.904 346.05 255.405 360.512 267.856 362.117C273.833 362.883 280.18 360.607 285.637 358.619C294.395 355.302 302.95 351.497 311.257 347.221C332.99 336.45 354.147 324.609 375.962 314.007C386.666 308.804 397.52 303.835 408.7 299.689C417.722 296.322 427.189 293.325 436.852 292.251C443.847 291.47 451.657 291.614 457.711 295.573C463.046 299.02 465.673 304.85 466.797 310.787C468.288 318.745 467.524 327.071 466.288 335.011C464.599 345.124 462.231 355.12 459.197 364.932C452.387 387.856 443.72 410.22 435.291 432.617C427.598 453.054 419.558 473.572 414.233 494.756C412.361 502.181 410.728 509.851 410.695 517.524C410.671 522.382 411.283 527.924 414.702 531.735C417.319 534.656 421.274 535.762 425.126 536.097C433.016 536.808 441.15 535.047 448.758 533.167C463.455 529.509 479.627 525.187 491.41 515.485C496.386 511.233 500.493 506.106 503.514 500.372C504.308 498.905 509.07 490.647 505.15 489.907C503.348 489.588 500.962 491.574 499.674 492.491C496.666 494.703 493.817 497.114 491.147 499.705C486.08 504.505 481.476 509.745 477.392 515.362C467.282 529.268 460.544 545.168 456.367 561.648C456.351 561.797 456.392 561.945 456.481 562.067C456.57 562.188 456.701 562.274 456.85 562.308C457 562.342 457.157 562.322 457.292 562.251C457.427 562.18 457.531 562.064 457.584 561.924L457.589 561.945Z" fill="white"/>
    </symbol>

    <symbol id="telegram-icon" viewBox="0 0 63 53">
        <g>
            <path fill-rule="evenodd" clip-rule="evenodd" d="M16.4234 31.042L20.7633 28.3932C22.2352 27.4313 23.6412 26.6216 25.1618 25.6199C28.0596 23.7101 30.973 22.0303 33.8913 20.1205L49.2242 10.4651C49.8088 10.1078 50.9889 9.2986 51.7855 9.86608C52.0667 10.4988 50.9031 11.199 50.4891 11.6122C49.9881 12.1117 49.3388 12.6675 48.7852 13.1459L38.5201 22.4297C36.5794 24.2671 33.5221 26.7704 31.6406 28.6249C31.3411 28.9203 31.0937 29.0851 30.766 29.3683L29.0848 30.9225C28.2661 31.7134 25.1646 34.3207 24.7616 34.8185L24.8247 34.9961C24.8357 35.0171 24.8679 35.0685 24.8905 35.1045L33.5852 41.4678C33.3765 41.605 33.4778 41.5829 33.3881 41.6907L33.8321 41.6791C33.9113 41.8987 33.8554 41.7781 33.9555 41.9026C34.1543 42.1504 34.3762 42.2084 34.6846 42.4457L36.3679 43.6542C36.6054 43.824 36.6951 44.0469 36.9165 44.1465C37.1501 44.2516 36.9874 44.2156 37.3029 44.2228C37.3732 44.6011 37.1556 44.3838 37.5343 44.454C37.6511 44.7438 37.5132 44.4855 37.6832 44.652L38.157 44.9878C38.4388 45.152 38.053 45.0005 38.4598 45.1476C38.5567 45.3871 38.8041 45.5005 39.0848 45.6797L41.3942 47.3943C41.8946 47.5414 41.3128 47.3052 41.6533 47.4214C42.0839 47.568 41.4136 47.4922 41.9317 47.6913C42.1332 48.2472 41.9616 47.5978 42.1631 48.1537H42.6259L43.0194 48.6852C43.2674 48.8644 43.3178 48.8417 43.5514 48.8473C43.6217 49.2256 43.4042 49.0088 43.7828 49.0785C43.9051 49.3816 44.41 49.6642 44.7083 49.772C44.824 50.058 44.7504 49.8959 44.9818 50.0768L46.1896 50.9529C46.2096 50.9678 46.2361 50.9889 46.2555 51.0038L47.0106 51.438C47.7424 51.8688 46.6148 51.3639 47.2541 51.6216C47.4174 52.0724 48.4177 52.4927 48.8699 52.6659L49.4207 52.8091C49.4512 52.8174 49.4811 52.8257 49.511 52.8345L49.6798 52.8976C50.3917 53.1399 51.2906 52.9114 51.6637 52.6116C51.6837 52.5956 51.7357 52.5436 51.7573 52.5248C51.7711 52.5132 51.7982 52.49 51.8126 52.4778C52.2571 52.0962 52.225 52.1841 52.3451 51.8528C52.6562 51.7272 52.6767 51.511 52.8677 51.1028C52.9535 50.9186 52.9651 50.8871 53.0498 50.7062C53.0614 50.6819 53.0764 50.6526 53.088 50.6282L53.1644 50.4712C53.2187 50.3351 53.1866 50.5868 53.2513 50.2051C53.3648 49.5381 53.0576 50.022 53.3753 49.3108C53.4174 49.2167 53.4118 49.2649 53.439 49.1199C53.4401 49.115 53.4478 48.9214 53.4539 48.8816C53.455 48.8722 53.5071 48.6349 53.5087 48.6293L53.656 48.3091C53.8115 47.8556 53.6637 47.7942 53.8154 47.3091L54.3966 44.7499C54.4016 44.6576 54.3568 44.5342 54.4426 44.2433L55.165 40.912C55.5015 40.0215 55.2369 40.6089 55.3288 40.0215C55.4439 39.282 55.5768 39.8229 55.5774 39.022C55.5774 38.2355 55.6465 38.7975 55.7921 38.1918C55.951 37.5326 56.0484 37.2361 56.0484 36.3589L56.2798 35.2029C56.7819 35.0005 56.3246 34.6476 56.545 34.1625L56.7741 33.3854C56.7813 33.3528 56.7885 33.3235 56.7974 33.2925L56.8948 33.0425C57.0232 32.6437 56.974 32.3982 56.974 31.9656H57.2054C57.2054 31.7942 57.1893 31.5431 57.2004 31.3827C57.2568 30.5525 57.4367 31.3207 57.4367 29.8849L57.6681 28.7289C58.0401 28.579 57.812 28.2394 58.0468 27.4883L58.2156 26.7322C58.4902 25.8578 58.6507 24.3047 58.9413 23.2947L59.7434 19.5868C59.7766 19.329 59.7439 19.3401 59.8093 19.0746C59.8724 18.8163 59.8989 18.8611 59.9454 18.6327L60.163 17.6935C60.3534 16.9695 60.1702 17.2643 60.3136 16.803L61.6078 10.6963C61.6642 10.1504 61.5435 10.9242 61.6305 10.4878L62.2122 7.94738C62.2942 7.64926 62.2493 7.77316 62.298 7.45512L63.0011 2.70623C62.9872 2.37603 62.9966 2.46729 62.9164 2.21232L62.5964 1.37603C62.4719 1.18466 62.4741 1.22891 62.3329 1.06077C61.6011 0.18632 60.5139 -0.234587 59.3653 0.131564L55.6687 1.52813C55.1694 1.69572 56.0418 1.40811 55.4943 1.59063L54.3507 2.05302C54.3235 2.06353 54.2937 2.0757 54.2665 2.08676L53.7683 2.28588C53.7423 2.29639 53.7119 2.30855 53.6859 2.31906L53.2735 2.48555C53.2463 2.4955 53.2164 2.50712 53.1893 2.51707C53.1616 2.52703 53.1312 2.53754 53.103 2.54639L50.1824 3.67471C50.0025 3.74329 50.08 3.70568 49.9162 3.75546C49.8863 3.76431 49.8547 3.77039 49.8248 3.77979C49.796 3.7892 49.7645 3.79694 49.7363 3.8069L45.4047 5.49108C45.3776 5.50103 45.3477 5.51265 45.32 5.52205L44.1647 5.98665C44.1376 5.99716 44.1066 6.00712 44.0789 6.01652L39.6428 7.71176C39.6134 7.72061 39.583 7.72946 39.5542 7.73886L37.6511 8.49661C37.6245 8.50712 37.5946 8.51928 37.568 8.52979L36.4582 8.92415C36.4316 8.93411 36.4017 8.94628 36.3751 8.95679L27.8764 12.2577C27.6677 12.3257 27.6279 12.3163 27.4314 12.391L25.4502 13.1863C25.4242 13.1968 25.3937 13.2084 25.3672 13.219L20.9553 14.9385C20.9288 14.949 20.8994 14.9612 20.8723 14.9712L20.0093 15.2649C19.9755 15.2781 19.8781 15.318 19.8444 15.3318L18.0287 16.0608C18.0027 16.0713 17.9728 16.084 17.9468 16.0945C17.9202 16.105 17.8909 16.1172 17.8637 16.1277L16.5889 16.5884C16.5629 16.5989 16.5324 16.6111 16.5064 16.6216L12.6709 18.1072C12.6448 18.1177 12.6144 18.1294 12.5884 18.1404C12.5624 18.1509 12.5319 18.1631 12.5059 18.1736C12.4799 18.1841 12.4494 18.1963 12.4234 18.2068C12.3974 18.2173 12.3675 18.2295 12.3415 18.24C12.3155 18.2505 12.285 18.2626 12.259 18.2732C12.233 18.2837 12.2025 18.2958 12.1765 18.3063L5.9103 20.7167C5.88429 20.7272 5.85384 20.7394 5.82782 20.7499L2.27899 22.1758C2.20869 22.2112 2.14282 22.2444 2.04761 22.2914C2.0238 22.303 1.99391 22.318 1.97066 22.3296L1.50734 22.5602C1.27152 22.6891 1.58705 22.5088 1.36009 22.6443L0.367017 23.5016C0.352071 23.5204 0.330482 23.5464 0.31609 23.5663C-0.148342 24.2101 -0.125646 25.334 0.5436 25.798L2.85026 26.8467C3.07611 26.9059 3.10545 26.8948 3.31469 26.9607C3.35067 26.9723 3.4481 27.011 3.48408 27.0232L6.20479 27.8888C6.23247 27.8982 6.26126 27.9109 6.28893 27.9203L6.4622 27.9789C6.60723 28.0204 6.61498 28.011 6.74506 28.0436L6.93106 28.089C6.96039 28.0973 6.98973 28.1083 7.01852 28.1172L7.63573 28.3097C7.66507 28.3185 7.69496 28.3279 7.7243 28.3368C7.75308 28.3456 7.78242 28.3567 7.81121 28.3655L11.959 29.6548C11.9894 29.6636 12.0204 29.6697 12.0503 29.6791C12.0797 29.688 12.1101 29.6968 12.1389 29.7057C12.1671 29.7145 12.197 29.7261 12.2252 29.735C12.2607 29.7466 12.3592 29.7853 12.3946 29.7975L15.1297 30.6487C15.1585 30.6576 15.1879 30.6686 15.2166 30.6775C15.2449 30.6863 15.2742 30.6979 15.3024 30.7068C15.8532 30.8805 15.7968 30.9833 16.4228 31.0386L16.4234 31.042Z" fill="#FDFEFF"/>
            <path fill-rule="evenodd" clip-rule="evenodd" d="M16.4229 31.0415C17.0163 32.1616 16.9073 32.4674 17.3451 33.7561C17.39 33.8889 17.411 33.9757 17.4553 34.1085L18.4434 37.2832C18.4528 37.3109 18.4655 37.3397 18.4749 37.3673L18.9023 38.9055C18.9117 38.9331 18.9244 38.9619 18.9338 38.9895L19.861 41.9945C19.8704 42.0222 19.8821 42.0521 19.8909 42.0803L20.1317 42.88C20.14 42.9121 20.145 42.9425 20.1528 42.9746C20.1605 43.0078 20.1633 43.0393 20.1705 43.0725C20.2242 43.3186 20.1893 43.2235 20.259 43.4464L20.3526 43.6997C20.362 43.7279 20.372 43.7584 20.3814 43.7866L21.1907 46.3308C21.2909 46.6383 21.2693 46.6444 21.3606 46.9702L21.98 48.8944C22.1677 49.2871 22.2402 49.3679 22.6022 49.5443C23.2482 49.8596 23.5472 49.7711 24.574 49.7711V49.5006L23.7287 49.5404C23.6783 48.6837 23.8704 46.9464 23.938 45.9597C24.0182 44.7938 24.0985 43.5686 24.1926 42.3308L24.6067 35.8015C24.6581 35.1361 24.7556 35.2036 24.8895 35.1029C24.8668 35.0675 24.8347 35.0161 24.8236 34.9945L24.7605 34.817C25.1635 34.3192 28.2651 31.7119 29.0838 30.921L30.7649 29.3668C31.0926 29.0836 31.3401 28.9188 31.6396 28.6234C33.5205 26.7689 36.5784 24.2655 38.5191 22.4282L48.7842 13.1444C49.3378 12.666 49.9871 12.1101 50.4881 11.6107C50.9021 11.1975 52.0657 10.4973 51.7845 9.86455C50.9879 9.29707 49.8077 10.1063 49.2232 10.4636L33.8903 20.119C30.972 22.0288 28.0586 23.7091 25.1608 25.6184C23.6401 26.6201 22.2341 27.4298 20.7622 28.3917L16.4224 31.0404L16.4229 31.0415Z" fill="#E7F6FB"/>
            <path fill-rule="evenodd" clip-rule="evenodd" d="M24.5744 49.5016L24.8828 49.5409L25.2686 49.2898L25.3848 49.3097L25.6157 49.0846L25.738 49.0785L25.9578 48.8385L26.1869 48.6039L26.4255 48.3844C26.6353 48.3091 26.534 48.3423 26.6475 48.2599C26.7012 48.2206 26.8418 48.0929 26.8927 48.0425L29.3289 45.6211C29.5725 45.4098 29.5952 45.4209 29.7845 45.1471C29.94 44.8086 29.8387 45.0055 30.0175 44.9081C30.1753 44.4939 30.0148 44.7859 30.2522 44.6681L30.4742 44.4502C30.8639 44.3844 30.6137 44.6039 30.7299 44.2223L30.937 44.0038L31.0338 43.9911C31.1202 43.7201 31.0283 43.8274 31.2652 43.7383C31.3488 43.516 31.1971 43.6089 31.5221 43.5309L31.7529 43.3014L31.9849 43.0696L32.2351 42.8573L32.4637 42.6233L32.689 42.3849L32.9226 42.1576L33.1512 41.9225L33.3864 41.6908C33.4761 41.5829 33.3748 41.605 33.5835 41.4679L24.8888 35.1045C24.7554 35.2052 24.658 35.1377 24.606 35.8031L24.1919 42.3324C24.0978 43.5708 24.0176 44.7953 23.9373 45.9612C23.8698 46.9474 23.6777 48.6852 23.728 49.542L24.5733 49.5022L24.5744 49.5016Z" fill="#BAE9F7"/>
            <path fill-rule="evenodd" clip-rule="evenodd" d="M31.0356 43.9906H31.2859L31.267 43.7378C31.0301 43.8268 31.122 43.7195 31.0356 43.9906Z" fill="#FCFEFE"/>
            <path fill-rule="evenodd" clip-rule="evenodd" d="M31.2671 43.7379L31.5173 43.7634L31.5239 43.5305C31.1996 43.6085 31.3512 43.5161 31.2671 43.7379Z" fill="#FCFEFE"/>
            <path fill-rule="evenodd" clip-rule="evenodd" d="M30.0186 44.9082L30.2438 44.9176L30.2533 44.6687C30.0158 44.7865 30.1763 44.4939 30.0186 44.9088V44.9082Z" fill="#F8FDFE"/>
            <path fill-rule="evenodd" clip-rule="evenodd" d="M29.7856 45.1471H30.0132L30.0192 44.9082C29.8404 45.0055 29.9417 44.8092 29.7862 45.1471H29.7856Z" fill="#F8FDFE"/>
            <path fill-rule="evenodd" clip-rule="evenodd" d="M24.8828 49.5404H25.1529L25.2686 49.2898L24.8828 49.5404Z" fill="#F8FDFE"/>
            <path fill-rule="evenodd" clip-rule="evenodd" d="M25.958 48.838L26.1944 48.8485L26.1872 48.6035L25.958 48.838Z" fill="#FAFDFE"/>
            <path fill-rule="evenodd" clip-rule="evenodd" d="M26.187 48.6034L26.4256 48.6177V48.3838L26.187 48.6034Z" fill="#F7FCFD"/>
            <path fill-rule="evenodd" clip-rule="evenodd" d="M25.7383 49.0779H25.963L25.958 48.8379L25.7383 49.0779Z" fill="#FCFEFE"/>
            <path fill-rule="evenodd" clip-rule="evenodd" d="M30.2534 44.6681L30.4754 44.6875L30.4759 44.4502L30.2534 44.6681Z" fill="#F4FBFD"/>
            <path fill-rule="evenodd" clip-rule="evenodd" d="M25.3848 49.3093H25.6156V49.0847L25.3848 49.3093Z" fill="#FAFDFE"/>
            <path fill-rule="evenodd" clip-rule="evenodd" d="M31.7549 43.3003L31.9802 43.2964L31.9868 43.0691L31.7549 43.3003Z" fill="#FDFDFE"/>
            <path fill-rule="evenodd" clip-rule="evenodd" d="M31.5234 43.5304L31.7487 43.5282L31.7548 43.3003L31.5234 43.5304Z" fill="#FDFEFE"/>
            <path fill-rule="evenodd" clip-rule="evenodd" d="M31.9868 43.0691C32.3522 42.9939 32.1191 43.1974 32.237 42.8567L31.9868 43.0691Z" fill="#FCFEFE"/>
            <path fill-rule="evenodd" clip-rule="evenodd" d="M32.9238 42.1569C33.2737 42.0557 33.0539 42.2781 33.1524 41.9219L32.9238 42.1569Z" fill="#FDFEFE"/>
            <path fill-rule="evenodd" clip-rule="evenodd" d="M30.7314 44.2224C31.058 44.1538 30.8726 44.3385 30.9385 44.0039L30.7314 44.2224Z" fill="#EDFAFC"/>
            <path fill-rule="evenodd" clip-rule="evenodd" d="M33.1523 41.9219C33.402 41.8561 33.314 41.9391 33.3876 41.6902L33.1523 41.9219Z" fill="#FCFEFE"/>
            <path fill-rule="evenodd" clip-rule="evenodd" d="M32.6899 42.3843C32.9368 42.319 32.8505 42.4026 32.9235 42.157L32.6899 42.3843Z" fill="#FDFDFE"/>
            <path fill-rule="evenodd" clip-rule="evenodd" d="M32.4648 42.6227C32.7068 42.5469 32.6209 42.6299 32.6901 42.3843L32.4648 42.6227Z" fill="#FCFEFE"/>
            <path fill-rule="evenodd" clip-rule="evenodd" d="M32.2363 42.8568C32.4705 42.7788 32.3886 42.859 32.4649 42.6228L32.2363 42.8568Z" fill="#FCFEFE"/>
        </g>
    </symbol>

    <symbol id="decorative-arrow" viewBox="0 0 21 21">
        <g clip-path="url(#clip0_2489_75)">
            <path d="M14.1503 13.773C14.4378 16.3286 15.4468 18.7496 17.0593 20.753C18.6805 22.7502 20.8369 24.2445 23.2761 25.0613C20.7184 25.3431 18.2953 26.3526 16.2941 27.9701C14.2929 29.5876 12.7976 31.7452 11.9858 34.187C11.6987 31.6307 10.6898 29.2089 9.07698 27.2049C7.45626 25.2081 5.3007 23.7139 2.86221 22.8968C5.41811 22.6104 7.83939 21.6013 9.8422 19.9878C11.8398 18.3679 13.3342 16.212 14.1503 13.773V13.773Z" fill="white"/>
        </g>
        <defs>
            <clipPath id="clip0_2489_75">
                <rect width="20.5284" height="20.5284" fill="white"/>
            </clipPath>
        </defs>
    </symbol>

    <symbol id="occasions-line" viewBox="0 0 616 621">
        <path d="M1.15177 5.46655C40.9996 -2.82409 84.2823 7.80125 108.868 41.9661C130.392 71.8699 135.933 113.178 130.007 149.685C126.565 170.793 119.668 191.109 112.095 211.073C106.916 224.727 99.9707 239.082 98.2602 253.724C97.7565 258.023 97.8207 262.663 99.9767 266.452C102.732 271.268 107.972 272.833 113.175 273.165C124.868 273.909 137.244 270.448 148.673 267.91C161.551 265.048 174.299 261.579 186.915 257.505C210.156 250 236.078 238.684 259.559 249.979C280.198 259.909 292.264 282.105 299.249 303.497C314.068 348.86 309.302 398.142 317.187 444.926C320.209 462.846 326.283 479.661 333.883 495.967C347.743 525.713 366.966 553.009 391.457 574.321C424.055 602.688 465.148 618.608 508.226 620.41C540.857 621.77 574.047 615.629 604.873 603.792C608.377 602.441 611.853 601.01 615.299 599.5C616.516 598.968 615.893 596.988 614.674 597.525C589.572 608.535 563 615.34 535.988 617.676C491.328 621.503 446.602 611.329 409.655 585.838C380.837 565.946 358.012 538.006 341.499 506.735C333.18 490.981 325.634 473.921 321.451 456.345C311.09 412.716 315.677 366.467 306.421 322.575C301.89 301.123 294.195 279.331 279.681 262.995C272.913 255.359 264.573 249.12 254.948 245.84C244.265 242.183 232.78 242.593 221.726 244.847C209.87 247.266 198.46 251.588 186.921 255.32C174.327 259.411 161.584 262.901 148.692 265.791C141.909 267.308 135.095 268.657 128.251 269.835C122.605 270.807 116.728 271.698 111.053 270.856C105.7 270.06 101.499 267.191 100.367 261.543C99.3043 256.142 100.702 250.231 102.133 244.972C104.215 237.35 107.065 229.933 109.873 222.559C116.932 203.947 124.096 185.339 128.758 165.977C137.436 129.852 136.227 90.9539 120.449 57.5989C111.396 38.4849 97.0353 22.4938 78.6327 12.6415C60.2302 2.78913 38.9595 -0.523197 18.1517 0.98234C12.4125 1.40078 6.69693 2.20317 1.04147 3.38438C-0.250698 3.64421 -0.145044 5.74826 1.15177 5.46655Z" fill="#E1EFF8"/>
    </symbol>

    <symbol id="capabilities-decorative" viewBox="0 0 504 184">
        <g>
            <path d="M244.743 81.0202C242.784 83.1489 241.479 85.7521 240.98 88.5255C240.492 91.3012 240.832 94.1292 241.959 96.6789C239.809 94.8515 237.142 93.6722 234.272 93.2809C231.402 92.8895 228.451 93.3027 225.769 94.4712C227.728 92.3423 229.034 89.7386 229.533 86.9646C230.021 84.1896 229.682 81.3622 228.556 78.8129C230.708 80.6355 233.374 81.8136 236.241 82.2092C239.11 82.5958 242.059 82.1834 244.743 81.0202V81.0202Z" fill="white"/>
            <path d="M492.054 19.2942C490.598 22.7529 490.133 26.5282 490.712 30.179C491.307 33.8278 492.921 37.1967 495.368 39.8919C491.995 38.5195 488.274 38.1677 484.644 38.8782C481.015 39.5886 477.63 41.3316 474.892 43.9003C476.348 40.441 476.815 36.6647 476.235 33.013C475.641 29.3651 474.027 25.9968 471.582 23.3018C474.955 24.667 478.674 25.0181 482.303 24.3138C485.929 23.5978 489.312 21.8566 492.054 19.2942V19.2942Z" fill="white"/>
            <path d="M1.24181 102.228C-0.735735 105.397 0.00410069 109.04 1.01847 112.409C1.91651 115.415 3.02859 118.351 4.11275 121.292C5.80181 125.875 7.49087 130.458 9.10548 135.069C10.6317 139.425 12.0881 143.803 13.5259 148.186C14.4332 150.978 15.3871 153.728 16.4434 156.441C18.1045 160.629 19.9564 164.714 21.8269 168.795C23.2973 171.996 24.7863 175.309 26.9174 178.157C28.1531 179.863 29.7979 181.231 31.7007 182.135C33.2562 182.837 34.9323 183.234 36.6376 183.303C38.7127 183.352 40.7856 183.139 42.8076 182.67C45.6502 182.04 48.4556 181.252 51.211 180.311C60.3542 177.305 69.3207 173.755 78.3244 170.363C86.4951 167.287 94.6985 164.267 102.785 160.977C106.81 159.335 111.007 157.72 114.655 155.305C116.699 154.053 118.346 152.248 119.406 150.099C120.277 148.341 120.638 146.374 120.448 144.422C120.251 142.829 119.921 141.256 119.462 139.718C118.773 137.279 117.95 134.878 117.136 132.491C113.971 123.525 110.486 114.666 107.038 105.802C104.014 98.0403 101.055 90.1859 97.3693 82.7038C95.5407 78.9813 93.4514 74.9378 90.1105 72.3507C88.9317 71.434 87.5826 70.7602 86.1415 70.3685C83.7405 69.7171 81.2697 70.2848 78.9293 70.9362C74.2529 72.2437 69.6511 73.9607 65.1097 75.6777C61.336 77.1062 57.6648 78.7673 54.0447 80.5261C49.4633 82.7931 44.7684 84.823 39.9785 86.6077C35.8792 88.1013 31.7519 89.5112 27.6386 90.9723C22.8615 92.6753 18.075 94.3876 13.2793 96.1092C10.2362 97.2074 7.08605 98.2171 4.1872 99.6828C2.98297 100.237 1.95904 101.119 1.23251 102.228C0.62761 103.159 2.16312 104.057 2.73545 103.107L2.94949 102.786L3.05651 102.642C2.87504 102.893 3.05651 102.67 3.05651 102.614C3.23712 102.413 3.4298 102.224 3.63349 102.047C3.75912 101.93 3.70793 101.986 3.63349 102.023L3.86148 101.902C4.00573 101.8 4.15463 101.707 4.32679 101.614C4.68042 101.4 5.04336 101.214 5.41561 101.032C8.39822 99.599 11.7856 98.5056 14.9916 97.3516C22.2007 94.7583 29.4161 92.1914 36.6376 89.6508C38.8897 88.8551 41.1464 88.0688 43.3659 87.18C47.2466 85.6306 51.0528 83.9229 54.8171 82.0989C58.3209 80.4005 61.8479 78.7813 65.5191 77.3993C70.0047 75.7009 74.5554 74.0119 79.1759 72.6951C80.5095 72.2825 81.8788 71.9958 83.2659 71.8389C83.7782 71.7924 84.2937 71.7924 84.8061 71.8389C84.9736 71.8389 84.8061 71.8389 84.8061 71.8389L85.0154 71.8761L85.2621 71.9273L85.7785 72.0576C86.1105 72.1506 86.4362 72.2577 86.7557 72.3786L86.9744 72.4624C87.1465 72.5322 86.8255 72.3973 86.9372 72.4624L87.0581 72.5136L87.5234 72.7416C87.8259 72.8951 88.1237 73.0673 88.4075 73.2488C88.5564 73.3465 88.7007 73.4442 88.8403 73.5466L89.045 73.6955C89.2358 73.8351 88.9519 73.6117 89.1613 73.7839C89.7708 74.2879 90.3416 74.837 90.869 75.4264L91.2645 75.8917L91.4832 76.1616C91.5204 76.2081 91.7298 76.478 91.6135 76.3244C91.9113 76.7153 92.1998 77.1155 92.4743 77.5249C93.8389 79.5951 95.0518 81.7613 96.1037 84.0066C97.6252 87.1381 98.9979 90.3394 100.324 93.5547C104.242 103.038 107.899 112.632 111.533 122.231C113.776 128.155 116.126 134.092 117.843 140.192C118.075 141.025 118.308 141.858 118.476 142.705C118.545 143.04 118.611 143.38 118.666 143.719C118.694 143.868 118.713 144.017 118.736 144.185C118.773 144.431 118.713 143.994 118.736 144.231L118.764 144.459C118.823 144.975 118.845 145.494 118.829 146.013C118.829 146.232 118.797 146.446 118.778 146.665C118.759 146.883 118.82 146.427 118.778 146.627C118.78 146.669 118.78 146.711 118.778 146.753L118.652 147.037C118.568 147.428 118.458 147.814 118.322 148.191C118.252 148.386 118.178 148.586 118.099 148.777C118.075 148.842 118.047 148.903 118.024 148.963C118.001 149.024 118.122 148.745 118.024 148.963C117.973 149.084 117.917 149.205 117.866 149.322C117.655 149.772 117.414 150.207 117.145 150.624C117.01 150.834 116.866 151.034 116.717 151.234C116.908 150.973 116.652 151.313 116.591 151.383C116.531 151.453 116.414 151.592 116.321 151.69C115.939 152.109 115.527 152.499 115.088 152.858L114.907 153.007L114.8 153.091C114.925 152.998 114.725 153.151 114.693 153.174L114.465 153.337C114.181 153.547 113.888 153.742 113.595 153.933C112.092 154.877 110.528 155.719 108.914 156.455C103.302 159.107 97.4531 161.266 91.6321 163.49C81.8979 167.213 72.1497 170.885 62.3876 174.509C58.5907 175.905 54.7845 177.3 50.9411 178.58C48.1942 179.522 45.3983 180.314 42.5656 180.953C41.9979 181.074 41.4303 181.186 40.8579 181.279C40.2856 181.372 40.053 181.409 39.462 181.47C38.5353 181.574 37.6022 181.609 36.6702 181.577C36.2514 181.577 35.828 181.525 35.4139 181.474C35.6279 181.502 35.3859 181.474 35.3022 181.474L35.0323 181.428C34.8322 181.39 34.6321 181.349 34.4367 181.302C34.0687 181.215 33.7052 181.109 33.3479 180.986C33.1711 180.925 32.9989 180.86 32.8221 180.79C32.6453 180.72 32.8221 180.79 32.7337 180.753L32.4126 180.609C30.6678 179.796 29.1745 178.528 28.09 176.937C26.0566 174.025 24.5862 170.66 23.1112 167.422C21.3244 163.499 19.533 159.558 17.9556 155.543C16.8994 152.853 15.9874 150.108 15.0893 147.363C12.1765 138.447 9.04034 129.625 5.7832 120.84C4.70834 117.932 3.61022 115.019 2.71218 112.051C2.39192 111.022 2.12632 109.976 1.91651 108.919C1.87463 108.71 1.84206 108.5 1.80949 108.291L1.78157 108.123C1.78157 108.012 1.78157 107.905 1.749 107.798C1.70494 107.402 1.68629 107.004 1.69316 106.607C1.69316 106.425 1.69316 106.244 1.71643 106.067C1.71643 105.992 1.71643 105.918 1.71643 105.843C1.71643 105.769 1.71643 105.732 1.71643 105.681C1.71643 105.629 1.68385 105.899 1.71643 105.75C1.76452 105.425 1.83606 105.103 1.93047 104.787C1.977 104.629 2.03283 104.471 2.08867 104.322C2.08867 104.257 2.13985 104.192 2.16777 104.126C2.06075 104.387 2.16777 104.126 2.205 104.043C2.35855 103.731 2.5214 103.428 2.70287 103.112C3.345 102.154 1.83275 101.274 1.24181 102.228Z" fill="white"/>
            <path d="M42.9518 86.4496C38.4151 77.7391 36.3724 67.5256 38.8897 57.8845C41.1185 49.3461 46.8417 42.7946 55.1381 39.7376C58.6093 38.4533 63.1135 37.3087 66.715 38.7418C69.1066 39.6957 70.0838 41.8826 70.3909 44.2882C71.0702 49.7137 69.088 55.5393 66.8778 60.4064C60.2146 75.0729 46.9813 87.5803 30.3234 88.7901C22.1526 89.3857 12.921 87.7059 5.83902 83.3786C4.10808 82.3177 2.11657 80.7636 2.1538 78.5161C2.20498 75.957 4.58734 73.6909 6.54163 72.3694C9.65917 70.2616 13.2327 69.6334 16.7551 70.9735C19.9192 72.188 22.6738 74.4494 25.3121 76.52C28.6343 79.121 31.9334 81.75 35.479 84.044C38.9582 86.3489 42.7233 88.19 46.6789 89.5206C53.463 91.7494 60.5729 92.9778 67.6642 93.6618C75.7651 94.4482 83.8568 94.4529 91.8089 92.5591C104.651 89.502 115.605 82.0245 125.446 73.4815C134.673 65.4783 143.127 56.2652 153.532 49.7509C162.996 43.8276 174.005 41.3754 184.912 44.3069C195.465 47.1406 204.39 54.1202 212.035 61.6767C229.349 78.7767 241.763 100.032 258.1 117.979C269.579 130.542 287.414 144.845 305.133 135.307C312.755 131.203 318.031 123.674 322.154 116.304C327.5 106.714 331.46 96.3699 335.336 86.1285C343.842 63.7939 351.719 39.5049 367.907 21.3487C376.031 12.238 386.366 5.49572 398.403 2.95981C418.058 -1.17676 438.261 5.90519 455.375 15.2067C463.489 19.6814 471.295 24.6914 478.743 30.2035C479.65 30.8688 480.521 29.3566 479.623 28.7005C452.23 8.67376 412.363 -12.2883 379.773 8.76682C359.136 22.0978 348.751 46.7311 340.138 68.7121C335.592 80.3448 331.488 92.131 326.467 103.554C322.466 112.66 317.85 122.204 310.554 129.146C304.091 135.311 295.538 137.926 286.758 135.898C276.707 133.571 268.448 126.326 261.51 119.058C243.996 100.725 231.326 78.2974 213.258 60.4297C205.497 52.7568 196.428 45.7028 185.759 42.7202C174.875 39.6771 163.675 41.7151 154.025 47.3732C143.132 53.7758 134.412 63.2727 124.99 71.5319C114.404 80.8101 102.585 88.818 88.5099 91.447C79.4876 93.1267 70.1024 92.4706 61.0894 91.0608C55.2219 90.1302 49.252 88.8506 43.7428 86.5752C37.5915 84.0347 32.2125 79.712 27.0244 75.6359C22.3713 71.9646 16.9412 67.3395 10.5526 68.6796C4.50359 69.9499 -3.56481 77.6181 2.82849 83.2948C5.38767 85.6167 8.84024 86.9521 12.0462 88.0596C16.136 89.4735 20.401 90.3174 24.7211 90.5676C42.0956 91.5866 56.7807 81.3498 65.4447 66.8788C68.6273 61.5604 71.1819 55.5859 72.0055 49.4066C72.522 45.5353 72.4708 40.4262 68.9019 37.9368C62.9692 33.8096 53.0815 37.9368 47.9026 41.4778C41.3884 45.9587 37.6008 53.3896 36.4654 61.0951C35.13 70.1546 37.2518 79.2792 41.4442 87.329C41.9653 88.3294 43.4683 87.4453 42.9518 86.4496Z" fill="white"/>
        </g>
    </symbol>

    <symbol id="buffet-line" viewBox="0 0 211 397">
        <path d="M1.14847 6.76937C97.18 -21.6262 216.213 71.9127 133.354 172.73C50.496 273.548 167.714 265.842 190.265 321.681L209.737 396.177" stroke="#E1EFF8" fill="none" stroke-width="2"/>
    </symbol>

    <symbol id="download-google" viewBox="0 0 28 30">
        <path d="M4.74809 0.382326C3.97523 -0.0829128 3.05412 -0.124515 2.2508 0.262794L15.7199 13.7606L20.1238 9.33612L4.74809 0.382326ZM1.01328 1.51202C0.84336 1.87179 0.751953 2.27199 0.751953 2.68391V27.3744C0.751953 27.7881 0.843946 28.1824 1.01563 28.5346L14.4794 15.0069L1.01328 1.51202ZM15.7217 16.2514L2.27429 29.7627C2.63113 29.9279 3.01082 30 3.38993 30C3.8581 30 4.32509 29.8881 4.74814 29.6338L20.1268 20.6665L15.7217 16.2514ZM25.9798 12.7463C25.9745 12.7428 25.9687 12.7393 25.9634 12.7364L21.6942 10.2502L16.9615 15.0051L21.6971 19.7507C21.6971 19.7507 25.9745 17.2569 25.9798 17.254C26.7738 16.7717 27.2478 15.9292 27.2478 14.9999C27.2478 14.0705 26.7738 13.228 25.9798 12.7463Z"/>
    </symbol>

    <symbol id="download-app" viewBox="0 0 28 30">
        <g>
            <path d="M18.6235 0C17.0242 0.110625 15.1548 1.13437 14.0654 2.4675C13.0717 3.67687 12.2542 5.47312 12.5729 7.21875C14.3204 7.27312 16.126 6.225 17.1723 4.86937C18.151 3.6075 18.8917 1.8225 18.6235 0Z"/>
            <path d="M24.9442 10.0651C23.4085 8.13947 21.2504 7.02197 19.2123 7.02197C16.5217 7.02197 15.3836 8.31009 13.5142 8.31009C11.5867 8.31009 10.1224 7.02572 7.7955 7.02572C5.50989 7.02572 3.07616 8.42259 1.53304 10.8113C-0.636323 14.1751 -0.265075 20.4994 3.25053 25.8862C4.50865 27.8137 6.18864 29.9812 8.38612 30C10.3417 30.0187 10.893 28.7456 13.5423 28.7325C16.1917 28.7175 16.6942 30.0168 18.6461 29.9962C20.8454 29.9793 22.6173 27.5775 23.8754 25.65C24.7773 24.2681 25.1129 23.5725 25.8123 22.0125C20.7254 20.0756 19.9098 12.8419 24.9442 10.0651Z"/>
        </g>
    </symbol>

    <symbol id="product-delete" viewBox="0 0 25 25">
        <g>
            <path d="M18 12L7 12" stroke="#676767" stroke-width="2"/>
            <circle cx="12.5" cy="12.5" r="12" fill="none" stroke="#676767"/>
        </g>
    </symbol>

    <symbol id="product-add" viewBox="0 0 25 25">
        <g>
            <path d="M12.5 6V18" stroke="#676767" stroke-width="2"/>
            <path d="M18 12L7 12" stroke="#676767" stroke-width="2"/>
            <circle cx="12.5" cy="12.5" r="12" fill="none" stroke="#676767"/>
        </g>
    </symbol>

    <symbol id="slider-btn-prev" viewBox="0 0 40 40">
        <g>
            <circle r="20" transform="matrix(-1 0 0 1 20 20)" fill="black" fill-opacity="0.6"/>
            <path d="M23 13L16.5 20.5L23 27.5" fill="none" stroke="white" stroke-width="2"/>
        </g>
    </symbol>

    <symbol id="slider-btn-next" viewBox="0 0 40 40">
        <g>
            <circle cx="20" cy="20" r="20" fill="black" fill-opacity="0.6"/>
            <path d="M17 13L23.5 20.5L17 27.5" fill="none"  stroke="white" stroke-width="2"/>
        </g>
    </symbol>

</svg>